<svg width="226" height="63" viewBox="0 0 226 63" fill="none" xmlns="http://www.w3.org/2000/svg">
<path fill-rule="evenodd" clip-rule="evenodd" d="M31.9715 2.0825C30.1995 2.953 27.9745 4.0215 27.0265 4.4575C26.0785 4.8935 22.788 7.733 19.7145 10.7675C13.8945 16.5135 12.1835 19.075 10.981 23.844C9.3755 30.21 13.7805 38.0155 22.8155 44.8155C24.842 46.3405 26.5 47.7725 26.5 47.997C26.5 48.3965 23.868 51.823 22.1265 53.69C21.6445 54.207 20.3115 55.0535 19.1645 55.571C18.018 56.0885 17.0055 56.6985 16.9145 56.927C16.824 57.1555 14.068 57.1745 10.7895 56.9695C7.5115 56.7645 4.491 56.7265 4.078 56.885C3.549 57.0885 3.415 56.9425 3.626 56.3935C3.856 55.7935 3.6735 55.6745 2.8375 55.879C1.1895 56.2815 0.5 56.9985 0.5 58.311C0.5 58.965 0.5565 59.508 0.625 59.518C5.031 60.1465 11.5 60.34 14.5 59.9325C20.573 59.1075 23.7975 57.307 27.2115 52.834C30.9735 47.906 30.8115 46.5345 26.061 43.0785C21.9675 40.101 16.205 33.8115 14.656 30.631C13.2785 27.8025 13.4565 25.1755 15.2915 21.25C17.2905 16.9745 25.2875 8.8025 29.077 7.163C29.823 6.8405 30.915 6.702 31.5035 6.856C32.092 7.01 33.476 6.838 34.579 6.474C36.0455 5.99 36.817 5.9575 37.45 6.3525C38.5985 7.07 39.802 6.3565 40.2145 4.714C40.669 2.902 40.195 1.7495 38.717 1.076C36.751 0.180499 35.4475 0.375 31.9715 2.0825ZM32 4C32 4.275 31.775 4.5 31.5 4.5C31.225 4.5 31 4.275 31 4C31 3.725 31.225 3.5 31.5 3.5C31.775 3.5 32 3.725 32 4ZM101.152 5.676C101.342 6.1715 101.228 6.4415 100.857 6.369C100.519 6.3025 100.319 6.653 100.406 7.162C100.491 7.6635 100.359 8.3385 100.111 8.662C99.8635 8.9855 99.3905 10.9375 99.0595 13C97.679 21.6075 96.4335 27.7275 95.9415 28.3205C95.5235 28.824 94.8915 28.75 92.8335 27.9565C89.8495 26.8055 83.0955 20.3205 80.8165 16.4175C78.8835 13.107 78.3105 12.7355 77.4925 14.264C76.802 15.554 76.9545 16.061 79.1455 19.7745C80.3735 21.8555 85.3125 27.1635 87.2855 28.5225C88.405 29.294 90.655 30.367 92.2855 30.907C94.224 31.5495 95.1905 32.125 95.078 32.57C94.983 32.944 94.603 34.6 94.233 36.25C93.8625 37.9 92.6785 42.7375 91.6015 47C88.619 58.8035 88.5365 60.7775 91.04 60.4185C91.964 60.286 92.304 59.821 92.625 58.25C92.8495 57.15 93.391 54.9 93.8275 53.25C94.2645 51.6 94.911 48.9 95.2635 47.25C95.6165 45.6 96.5995 41.55 97.4485 38.25C101.746 21.544 103.691 5.804 101.546 5.096C101.063 4.937 100.939 5.1195 101.152 5.676ZM57.284 7.7875C54.7645 10.307 50.848 18.01 48.2575 25.54C46.31 31.202 44.8385 33.4035 43.657 32.423C42.704 31.632 40.5 32.8375 40.5 34.15C40.5 34.9885 40.7495 35.0905 42.2205 34.8515C43.2955 34.677 44.0125 34.787 44.1315 35.144C44.394 35.9325 42.906 39.711 40.2505 44.9995C38.506 48.473 38.082 49.785 38.32 50.975C38.7195 52.9735 39.69 52.91 41.857 50.743C43.2575 49.3425 43.56 48.7085 43.3485 47.618C43.184 46.7695 43.4285 45.68 43.9915 44.75C44.4915 43.925 45.5125 41.511 46.261 39.3855C47.01 37.26 47.948 35.2505 48.346 34.9205C48.7545 34.581 51.83 34.1375 55.41 33.901C58.897 33.671 62.9555 33.136 64.4285 32.7115C65.902 32.2875 67.2095 32.0425 67.334 32.1675C67.6895 32.5225 68.404 38.3065 68.708 43.288C68.968 47.5435 68.909 47.929 67.759 49.4875C67.085 50.4015 66.6515 51.3405 66.796 51.5745C67.2835 52.3635 68.935 52.008 70.321 50.8155C71.611 49.7065 71.7115 49.327 71.908 44.827C72.0235 42.1845 71.833 38.161 71.4845 35.886C71.1355 33.6115 70.8135 31.3 70.7685 30.75C70.7235 30.2 70.443 29.1875 70.1455 28.5C69.8475 27.8125 69.33 26.2375 68.995 25C67.49 19.4395 63.61 11.809 60.5415 8.375C59.137 6.803 58.401 6.6705 57.284 7.7875ZM135.375 11.7775C134.715 12.462 134.95 14.1265 135.667 13.8515C136.033 13.7105 137.777 13.993 139.542 14.478C142.381 15.2595 142.731 15.49 142.584 16.4855C142.471 17.251 142.631 17.5355 143.084 17.3765C143.45 17.2475 143.714 16.7435 143.669 16.256C143.599 15.4745 143.895 15.4075 146.169 15.69C148.926 16.0325 151.826 16.5895 155.574 17.4965C156.852 17.806 158.989 17.9895 160.324 17.9045L162.75 17.75L160.402 16.625C159.111 16.0065 157.69 15.5 157.245 15.5C156.799 15.5 155.954 15.243 155.367 14.9285C152.187 13.2265 136.38 10.7355 135.375 11.7775ZM214.949 12.496C212.438 13.8235 208.208 18.5885 207.82 20.5265C207.018 24.5365 207.457 28.515 209.077 31.9285C210.832 35.626 213.519 39.77 216.365 43.166C220.799 48.456 221.579 49.597 221.835 51.175C222.073 52.645 221.88 53.026 220.193 54.4165C219.142 55.283 217.206 56.3495 215.891 56.7865C213.51 57.577 212.936 58.189 214.125 58.669C214.469 58.8075 214.188 58.9475 213.5 58.9795C210.93 59.0995 208.229 59.6205 207.625 60.113C206.88 60.7205 206.799 62.317 207.492 62.745C208.11 63.1265 217.683 60.6795 219.891 59.5755C222.727 58.1585 225.545 54.879 225.844 52.648C226.166 50.246 225.349 48.506 221.915 44.2765C214.268 34.858 211.993 31.144 211.28 26.9185C210.933 24.8655 212.569 21 213.783 21C214.158 21 214.695 20.571 214.975 20.047C215.651 18.784 222.337 16.1375 223.051 16.851C223.674 17.4745 225.99 16.563 225.996 15.6925C226 15.101 224.138 12.501 223.267 11.8825C222.206 11.129 216.778 11.5295 214.949 12.496ZM60.642 14.375C63.5645 19.1205 67.1975 28.9695 66.3415 29.8255C65.8245 30.342 50.652 30.65 50.343 30.1505C50.1745 29.878 50.486 28.439 51.0345 26.9525C52.423 23.189 52.5695 22.8555 55.232 17.375C57.9365 11.808 58.775 11.343 60.642 14.375ZM182.75 14.5C182.58 14.775 181.998 15 181.458 15C179.898 15 173.896 18.25 172.25 19.9865C170.933 21.3755 170.754 21.914 170.783 24.409C170.845 29.7435 174.769 35.417 183.366 42.597C186.066 44.8525 187.5 46.4035 187.5 47.07C187.5 48.4185 181.101 55.3285 178.467 56.8245C176.677 57.841 174.994 58.179 170.375 58.449C169.133 58.5215 169.223 60.8165 170.495 61.4975C171.231 61.891 172.3 61.82 174.598 61.2245C179.893 59.8525 183.593 57.4705 187.98 52.61C190.668 49.6315 191 49.032 191 47.153C191 44.6965 190.223 43.793 182.365 37.117C179.689 34.8435 177.5 32.661 177.5 32.2665C177.5 31.8725 177.207 31.37 176.848 31.15C176.165 30.731 174.353 26.7065 173.814 24.411C173.39 22.6055 174.143 21.9465 179.697 19.263C183.965 17.2005 184.463 17.0705 186.228 17.5575C187.724 17.971 188.23 17.9405 188.561 17.4175C189.202 16.407 189.111 16.16 187.682 15.0365C186.311 13.9575 183.289 13.629 182.75 14.5ZM114.924 14.875C114.749 15.737 114.668 16.441 114.307 20.25C114.098 22.45 113.726 25.0375 113.481 26C113.236 26.9625 112.707 29.1 112.305 30.75C111.903 32.4 111.101 35.4375 110.523 37.5C109.945 39.5625 109.046 42.825 108.525 44.75C107.229 49.5425 106.16 53.3925 105.506 55.6175C104.736 58.239 105.476 59.472 107.893 59.593C112.647 59.8315 114.48 59.733 117.5 59.076C123.129 57.852 127.347 55.0945 128.455 51.9135C129.051 50.204 129.394 50.0795 125.141 53.1135C122.207 55.2065 110.804 57.6155 109.028 56.5175C108.498 56.19 110.295 48.4855 113.115 39C114.341 34.8755 114.571 33.979 115.487 29.75C117.151 22.0675 117.491 19.341 116.877 18.5965C116.405 18.0255 116.396 17.7885 116.839 17.639C117.666 17.3605 116.629 14.5 115.701 14.5C115.315 14.5 114.966 14.6685 114.924 14.875ZM140.18 19.901C136.97 23.118 132.515 42.929 133.167 51.0805C133.681 57.499 135.912 59.7515 141.75 59.748C146.762 59.7455 150.924 56.8655 152.661 52.1975C153.162 50.8515 153.782 49.356 154.04 48.875C154.297 48.3935 154.313 48 154.074 48C153.835 48 152.888 49.4065 151.97 51.125C150.453 53.9655 150.274 54.136 150.003 53L149.704 51.75L148.754 53.3595C147.661 55.2075 147.317 55.391 143.272 56.271C139.993 56.9845 137.969 56.4355 137.275 54.6435C136.047 51.4735 136.046 49.3095 137.269 39C137.544 36.683 138.333 33.5005 138.731 33.102C138.907 32.927 143.032 32.773 147.9 32.7605C155.708 32.7395 156.982 32.62 158.719 31.7435C160.082 31.0555 160.807 30.298 161.076 29.28C161.695 26.938 160.755 26.36 158.999 28.001C157.221 29.661 153.731 30.238 148.344 29.762C146.367 29.587 143.625 29.663 142.251 29.931C140.876 30.1985 139.645 30.312 139.516 30.1825C139.157 29.824 140.844 23.773 141.93 21.5265C142.704 19.924 142.767 19.429 142.251 19.001C141.773 18.604 141.244 18.8345 140.18 19.901ZM224.348 19.1965C224.144 19.717 224.095 20.261 224.238 20.405C224.695 20.861 225.095 20.1135 224.904 19.164C224.729 18.294 224.702 18.2955 224.348 19.1965Z" fill="#3D3A95"/>
</svg>
