<svg width="792" height="232" viewBox="0 0 792 232" fill="none" xmlns="http://www.w3.org/2000/svg">
<path fill-rule="evenodd" clip-rule="evenodd" d="M788.555 2.16717C788.555 2.88915 789.476 3.47985 790.601 3.47985C791.726 3.47985 792.283 2.88915 791.836 2.16717C791.39 1.4452 790.47 0.854492 789.79 0.854492C789.11 0.854492 788.555 1.4452 788.555 2.16717ZM77.7384 57.4402C74.8505 58.0729 69.8295 59.1559 66.5806 59.8477C63.3317 60.5394 58.3107 61.6198 55.4228 62.2499C46.4178 64.2162 31.045 73.258 22.5572 81.5843C2.89723 100.866 1.41259 120.629 17.7725 145.249C21.851 151.386 29.0366 160.68 33.7413 165.903C48.3081 182.073 51.7197 191.998 44.8872 198.329C41.5268 201.444 39.836 201.748 14.7297 203.766C2.60319 204.74 1.3312 205.224 0.581662 209.145C-0.157377 213.012 0.611854 216.134 2.3039 216.134C2.89461 216.134 3.57063 215.157 3.80429 213.965C4.14559 212.22 5.96103 211.771 13.0889 211.668C17.9629 211.597 21.9508 211.983 21.9495 212.524C21.9495 214.178 24.6483 213.623 26.7316 211.54C27.8145 210.457 29.3963 209.618 30.2469 209.674C31.3364 209.747 31.3076 209.974 30.1537 210.44C27.2146 211.626 28.4262 213.161 31.7946 212.518C33.7098 212.151 35.0763 212.501 35.0763 213.355C35.0763 214.162 36.6108 214.821 38.4866 214.821C40.9151 214.821 43.7242 212.843 48.2464 207.951C61.742 193.349 60.0303 182.461 40.8678 161.015C33.8515 153.161 28.8437 146.495 20.2942 133.631C14.1062 124.319 13.4919 109.589 18.8883 99.933C23.375 91.9072 30.1787 84.866 33.4499 84.866C34.9122 84.866 36.4717 83.9183 36.9153 82.7605C37.3879 81.5305 38.5588 80.9752 39.731 81.4255C40.9453 81.8915 42.0597 81.2968 42.5494 79.9212C43.7675 76.499 49.7901 71.8403 53.0639 71.7865C54.6549 71.7602 57.3131 71.1367 58.971 70.4016C63.9697 68.1832 86.8234 65.5197 89.7297 66.8167C91.7368 67.7132 92.2369 68.9655 91.8602 72.1606C91.3929 76.1301 91.469 76.2102 93.4144 73.7857C96.0962 70.4436 96.0279 63.3066 93.2871 60.5657C91.1527 58.4313 85.6551 55.8414 83.8883 56.138C83.3934 56.2207 80.6263 56.8062 77.7384 57.4402ZM147.119 87.8196C144.302 90.8886 139.178 99.3055 135.734 106.525C132.289 113.745 128.907 120.677 128.217 121.931C127.528 123.184 126.964 124.919 126.964 125.784C126.964 126.649 125.755 130.052 124.277 133.349C117.751 147.906 117.39 148.377 111.89 149.51C109.016 150.102 106.155 151.093 105.534 151.714C104.913 152.335 102.174 152.544 99.4462 152.178C94.0602 151.456 91.6134 153.354 94.0878 156.335C95.1629 157.631 97.6937 157.925 103.362 157.411C112.243 156.605 114.164 158.383 111.231 164.695C110.33 166.634 107.251 175.014 104.391 183.317C99.9135 196.313 99.3083 199.372 100.045 205.31C101 213.011 103.812 215.646 109.543 214.207L112.881 213.37L109.421 209.757C105.527 205.692 105.154 203.448 107.749 199.69C108.732 198.266 109.959 194.233 110.475 190.73C111.683 182.527 120.905 159.913 123.951 157.686C126.646 155.714 133.258 154.848 154.824 153.637C173.128 152.61 172.112 151.597 173.418 172.159C176.002 212.848 175.944 214.821 172.163 214.821C169.518 214.821 169.826 216.99 172.908 220.072C176.288 223.452 177.65 223.38 180.064 219.695C182.543 215.915 183.208 194.768 181.608 170.665L180.463 153.421L188.502 152.487C201.256 151.007 200.772 148.402 187.581 147.531C179.744 147.014 178.211 145.571 178.175 138.686C178.137 131.357 170.081 102.673 165.519 93.6242C162.64 87.9141 157.124 82.2407 154.451 82.2407C153.235 82.2407 149.934 84.7505 147.119 87.8196ZM235.095 84.1664C233.953 87.1435 235.444 93.468 238.279 97.6765C239.613 99.656 243.55 105.705 247.028 111.12C259.923 131.188 262.545 134.758 268.258 140.026C272.635 144.06 274.994 145.31 277.653 145.003C280.491 144.676 281.292 143.817 281.644 140.73C282.007 137.539 281.763 137.133 280.24 138.396C277.511 140.661 268.098 130.243 258.908 114.785C258.175 113.552 254.253 107.645 250.192 101.658C246.13 95.6707 242.113 89.4276 241.265 87.7828C240.41 86.1236 239.077 85.1916 238.273 85.6891C237.431 86.2089 237.192 85.987 237.704 85.1601C238.189 84.3764 237.98 83.3617 237.241 82.9049C236.502 82.4481 235.537 83.0165 235.095 84.1664ZM617.606 84.4302C615.966 85.3412 611.074 86.1065 606.734 86.1328C600.084 86.1708 597.812 86.8521 592.295 90.458C576.643 100.686 581.84 115.077 611.842 144.593C629.061 161.533 633.108 167.68 631.763 174.857C630.994 178.951 623.188 187.255 620.108 187.255C619.48 187.255 617.333 188.419 615.335 189.841C613.338 191.264 611.357 192.082 610.933 191.659C610.511 191.235 608.357 191.52 606.146 192.291C603.153 193.334 599.366 193.205 591.311 191.788C577.04 189.277 577.213 189.252 577.213 193.767C577.213 197.229 577.825 197.821 582.792 199.169C585.86 200.001 593.392 200.688 599.529 200.694C613.179 200.71 622.804 197.427 631.462 189.806C641.877 180.638 642.828 169.317 634.262 156.415C629.706 149.551 625.92 145.757 613.677 135.791C606.787 130.182 594.31 114.143 594.291 110.869C594.283 109.648 593.687 108.284 592.965 107.838C590.424 106.267 591.639 100.819 595.147 98.0598C599.328 94.7715 605.449 93.3026 616.922 92.8353C618.185 92.7841 619.219 91.856 619.219 90.7731C619.219 89.6901 620.154 88.8041 621.297 88.8041C622.44 88.8041 623.143 89.5024 622.859 90.3556C622.574 91.2089 625.035 93.2737 628.328 94.9448C635.534 98.6006 634.971 98.5625 634.971 95.3977C634.971 93.9708 633.53 91.8587 631.768 90.7035C630.005 89.5497 628.381 87.3207 628.158 85.7508C627.682 82.4074 622.431 81.751 617.606 84.4302ZM303.701 86.3283C300.163 98.4667 296.661 109.712 293.731 118.339C289.735 130.106 283.706 150.928 277.195 175.441C271.98 195.077 270.102 215.493 272.671 224.665C275.265 233.933 277.162 231.184 278.177 216.684C279.338 200.097 284.291 178.805 296.321 138.686C310.312 92.0188 310.656 90.3241 306.814 86.8469C304.752 84.9802 304.123 84.8752 303.701 86.3283ZM723.249 90.3346C717.064 91.7195 715.398 95.3675 720.952 95.3675C722.757 95.3675 724.233 95.865 724.233 96.4727C724.233 97.5439 732.864 100.618 735.872 100.618C738.484 100.618 737.472 96.1183 734.026 92.4008C732.191 90.4226 730.272 88.8671 729.76 88.9445C729.247 89.022 726.317 89.6468 723.249 90.3346ZM378.07 108.166C375.778 117.372 372.636 128.447 371.087 132.779C364.383 151.528 361.737 164.059 361.506 178.149C361.29 191.236 361.478 192.318 364.858 197.438C369.764 204.871 377.692 209.198 389.873 211.092C399.668 212.615 400.121 212.564 407.153 209.12C413.754 205.889 417.066 202.6 417.066 199.282C417.066 198.581 414.106 199.134 410.488 200.508C402.618 203.499 389.094 203.808 382.768 201.141C380.333 200.114 376.275 197.122 373.748 194.492L369.153 189.708L369.3 176.586C369.388 168.723 370.046 162.865 370.941 161.97C371.763 161.148 372.435 158.83 372.435 156.819C372.435 154.807 375.395 144.147 379.014 133.129C387.245 108.068 388.97 99.8923 387.053 95.0393C384.304 88.0834 382.364 90.9201 378.07 108.166ZM703.198 92.792C694.481 93.8185 691.242 95.4042 688.114 100.178C686.006 103.397 685.921 104.634 687.339 111.717C690.277 126.406 695.209 134.685 713.569 155.751C723.542 167.193 729.449 177.459 729.471 183.388C729.517 195.29 710.683 215.621 693.67 222.033C686.515 224.731 685.668 225.626 686.826 229.273C687.879 232.59 690.81 232.567 699.883 229.173C703.871 227.68 707.733 226.83 708.464 227.281C709.195 227.733 709.794 226.974 709.794 225.595C709.794 223.24 723.803 210.883 726.472 210.883C727.103 210.883 729.886 206.687 732.656 201.558C736.934 193.637 737.692 191.02 737.698 184.165C737.707 172.97 734.106 165.688 722.209 152.838C713.003 142.894 700.605 126.349 700.605 124.008C700.605 122.984 700.011 121.551 699.285 120.826C696.899 118.44 694.265 105.999 695.876 104.724C697.638 103.328 704.676 101.068 711.763 99.6219C715.007 98.9603 717.014 97.8169 717.014 96.6303C717.014 95.5749 716.276 94.8581 715.373 95.0393C714.471 95.2204 713.732 94.8266 713.732 94.1637C713.732 93.5021 714.471 92.7014 715.373 92.385C717.662 91.5817 711.819 91.7773 703.198 92.792ZM489.264 93.5757C476.712 94.2648 472.199 95.2506 472.199 97.3076C472.199 99.698 474.954 100.479 486.015 101.226C491.05 101.565 504.917 102.55 516.83 103.414C544.76 105.441 546.033 105.462 546.548 103.9C547.959 99.6074 537.822 96.054 520.768 94.8621C515.353 94.484 507.969 93.9353 504.359 93.6413C500.75 93.3486 493.956 93.3184 489.264 93.5757ZM157.41 97.0083C161.595 103.622 168.522 126.89 169.763 138.505C170.596 146.302 170.49 146.805 168.172 146.068C166.805 145.635 157.124 145.816 146.658 146.471C136.191 147.126 127.452 147.487 127.238 147.273C126.741 146.776 139.079 115.585 142.111 109.672C146.088 101.916 151.966 94.0548 153.786 94.0548C154.751 94.0548 156.382 95.3845 157.41 97.0083ZM474.806 110.791C474.795 113.5 472.389 122.507 469.457 130.81C460.431 156.377 458.532 177.831 464.407 187.911C471.066 199.338 473.297 201.351 483.414 205.041C491.78 208.091 494.617 208.511 503.358 207.994C516.166 207.235 524.982 203.569 527.992 197.75C529.178 195.453 529.903 193.326 529.6 193.024C529.298 192.721 526.153 193.811 522.612 195.444C517.22 197.93 513.933 198.413 502.39 198.413C490.104 198.413 487.965 198.054 482.7 195.109C471.527 188.86 467.031 174.888 471.053 158.914C472.602 152.763 476.378 149.338 479.174 151.549C481.388 153.3 513.395 156.185 519.202 155.156C527.859 153.624 528.644 153.139 528.644 149.317C528.644 144.33 527.624 143.717 523.161 146.025C521.05 147.117 518.303 147.686 517.054 147.289C515.806 146.893 506.286 145.998 495.901 145.299C485.515 144.601 476.483 143.496 475.831 142.843C475.125 142.137 475.479 139.659 476.71 136.713C479.673 129.621 484.29 109.798 483.475 107.671C483.094 106.68 480.992 105.869 478.803 105.869C475.084 105.869 474.823 106.189 474.806 110.791ZM107.93 212.196C107.484 212.918 106.528 213.509 105.806 213.509C105.084 213.509 104.858 212.918 105.305 212.196C105.751 211.474 106.707 210.883 107.429 210.883C108.151 210.883 108.376 211.474 107.93 212.196Z" fill="#3D3A95"/>
</svg>
