<svg width="337" height="55" viewBox="0 0 337 55" fill="none" xmlns="http://www.w3.org/2000/svg">
<path fill-rule="evenodd" clip-rule="evenodd" d="M126.591 1.375C127.467 5.83 128.382 8.227 131.65 14.6315C133.648 18.547 135.686 22.821 136.178 24.13C136.691 25.4945 137.906 27.262 139.025 28.2735L140.977 30.037L139.415 34.476C137.592 39.6575 137.596 41.25 139.434 41.25C140.484 41.25 140.789 40.8905 141.345 39C141.708 37.7625 142.318 35.9625 142.7 35C143.081 34.0375 144.958 28.8625 146.869 23.5C148.781 18.1375 150.933 12.175 151.652 10.25C152.984 6.6795 152.997 4.5 151.686 4.5C150.5 4.5 149.281 6.8105 149.644 8.3715C149.881 9.3935 149.833 9.556 149.457 9C149.177 8.5875 148.946 8.3655 148.941 8.507C148.937 8.6485 148.471 9.9985 147.905 11.507C147.34 13.0155 146.092 16.3865 145.133 18.9975C143.173 24.331 142.236 26 141.203 26C140.783 26 138.747 22.446 136.201 17.2715C133.84 12.471 131.689 8.408 131.421 8.242C131.153 8.0765 130.934 7.597 130.934 7.1765C130.934 5.6085 127.971 0 127.143 0C126.513 0 126.384 0.3225 126.591 1.375ZM27.6104 3.375C26.5154 4.555 26.3594 4.608 26.5094 3.75C26.6364 3.023 26.3719 2.706 25.5414 2.588C23.2809 2.2675 11.8394 7.333 9.1094 9.863C7.9584 10.9295 7.8634 11.2885 8.1789 13.3905C8.3719 14.677 8.9579 16.332 9.4819 17.0675C10.0054 17.8025 10.4339 18.538 10.4339 18.7015C10.4339 18.8645 12.4839 21.074 14.9899 23.611C22.6549 31.3715 24.8049 34.0445 25.4534 36.621C25.9809 38.7155 25.9284 39.1955 24.9519 41.213C23.3604 44.5 19.0494 48.25 15.9484 49.0445C14.5654 49.399 13.4339 49.841 13.4339 50.0265C13.4339 50.212 11.3074 50.3385 8.70841 50.307C3.60491 50.2455 1.8429 49.554 3.5589 48.286C4.0404 47.9305 4.4339 47.496 4.4339 47.32C4.4339 46.6795 3.1354 47.022 2.3304 47.875C1.8759 48.3565 1.1509 49.04 0.718903 49.3945C-0.535097 50.4245 -0.218098 50.989 2.2214 52.068C5.5764 53.552 9.0739 53.7575 13.6989 52.7425C18.8074 51.621 20.2819 50.8505 23.7404 47.495C27.9889 43.374 29.2289 39.632 27.9139 34.8985C27.2909 32.6545 25.1499 29.9725 18.2149 22.75C13.0489 17.3695 12.3879 16.5 13.4634 16.5C13.7544 16.5 13.8599 16.285 13.6974 16.022C13.5349 15.759 13.1004 15.6595 12.7324 15.8005C12.3644 15.942 11.9284 15.707 11.7639 15.2785C11.5999 14.8505 11.6834 14.5 11.9494 14.5C12.2159 14.5 12.4339 14.2615 12.4339 13.9705C12.4339 13.6795 12.2089 13.58 11.9339 13.75C10.9974 14.329 10.4484 13.5135 10.9959 12.357C11.7159 10.8375 19.9709 6.8235 23.6089 6.224C24.1999 6.1265 25.4714 5.852 26.4339 5.614C27.9069 5.25 28.4374 5.3715 29.7854 6.382C31.8789 7.952 33.2199 7.7 33.0774 5.764C32.9699 4.3085 30.8379 2.054 29.5349 2.018C29.1779 2.008 28.3119 2.6185 27.6104 3.375ZM218.934 4.2375C217.971 4.5775 216.962 5.338 216.69 5.928C216.419 6.5175 216.025 7 215.815 7C215.271 7 215.342 8.3845 215.904 8.7315C216.162 8.891 217.118 8.568 218.029 8.013C220.265 6.6495 221.346 6.7255 221.734 8.273C222.038 9.4845 222.099 9.505 222.994 8.6955C223.511 8.228 223.934 8.0675 223.934 8.34C223.934 8.612 223.298 9.4015 222.52 10.0945C221.565 10.945 220.738 12.5555 219.973 15.052C219.349 17.086 218.665 19.2 218.453 19.75C216.76 24.134 215.857 34.901 216.959 37.5615C218.095 40.3045 224.652 43 230.188 43C233.523 43 234.318 42.54 234.55 40.475C234.672 39.388 234.52 39.2935 232.862 39.424C231.151 39.5585 229.488 39.2555 224.684 37.934C220.527 36.7905 219.937 36.439 219.869 35.0645C219.73 32.236 220.063 28.736 220.497 28.4645C220.748 28.3075 223.012 28.126 225.528 28.0615C228.045 27.997 230.501 27.732 230.986 27.472C231.471 27.2125 232.643 27 233.59 27C235.505 27 236.712 25.9455 236.231 24.6925C235.909 23.8525 233.006 23.8855 223.809 24.833C220.244 25.2 220.243 25.1955 222.762 17.6945C223.889 14.3375 224.608 11.2205 224.637 9.5655L224.684 6.8805L227.971 7.1855C229.778 7.3535 231.916 7.6915 232.721 7.937C233.525 8.1825 235.196 8.6635 236.434 9.0065C237.671 9.349 239.393 9.938 240.259 10.315C242.242 11.177 242.759 11.1755 243.094 10.305C243.71 8.698 239.471 6.009 234.684 4.9695C227.702 3.4545 221.913 3.185 218.934 4.2375ZM175.292 5.497C174.709 6.3295 171.874 14.595 169.803 21.5C168.748 25.018 166.86 33.332 166.418 36.4065C165.86 40.2895 166.279 41.122 169.658 42.851C171.914 44.006 172.485 44.089 176.158 43.7955C178.372 43.619 182.659 43.359 185.684 43.218C192.604 42.8965 193.434 42.718 193.434 41.551C193.434 40.039 187.899 39.462 179.732 40.122C174.428 40.551 172.713 40.53 171.485 40.021C169.991 39.4025 169.934 39.266 169.934 36.35C169.934 34.684 170.154 32.63 170.424 31.7855C170.693 30.941 171.362 28.225 171.911 25.75C172.46 23.275 173.702 18.8055 174.671 15.818C176.693 9.5875 176.776 9.0355 175.518 10.1735C175.015 10.6295 174.468 10.867 174.303 10.702C173.852 10.252 174.438 8.958 176.003 6.945C177.284 5.2985 177.406 4.5 176.379 4.5C176.165 4.5 175.676 4.9485 175.292 5.497ZM286.684 5C286.134 5.2365 283.611 5.4455 281.078 5.465C270.722 5.544 265.116 10.769 265.215 20.25C265.26 24.561 267.043 27.0435 275.898 35.1195L278.497 37.4895L277.595 39.016C276.58 40.7335 275.277 41.7095 273.434 42.132C270.749 42.7475 268.613 43.787 268.811 44.381C269.065 45.1425 268.853 45.1495 267.082 44.4375C264.184 43.2725 263.617 43.0965 261.021 42.555C257.045 41.7265 255.934 41.8205 255.934 42.987C255.934 46.111 269.902 47.744 275.684 45.296C278.089 44.278 280.646 41.902 281.465 39.925C282.366 37.7495 280.991 34.5765 278.296 32.611C274.188 29.615 269.608 24.814 268.952 22.8165C267.634 18.8 268.557 14.974 271.52 12.181C274.491 9.3795 275.787 9 282.391 9C287.887 9 288.444 8.915 288.934 8C289.228 7.45 289.855 7.0035 290.326 7.0075C290.998 7.0135 291.037 7.1085 290.505 7.445C289.58 8.0315 290.634 8.6625 291.879 8.2675C292.492 8.0725 292.928 8.263 293.141 8.8185C293.399 9.491 293.593 9.539 294.075 9.049C294.555 8.5615 294.412 8.195 293.402 7.3195C292.698 6.709 291.973 5.8245 291.793 5.3545C291.434 4.4195 288.507 4.2165 286.684 5ZM77.3719 6.835C76.1799 8.217 74.5109 11.608 69.9074 22C68.7499 24.6125 67.5474 27.0275 67.2344 27.3665C66.7649 27.875 65.2814 28.244 62.8089 28.4665C62.2144 28.52 62.3734 30.2395 63.0339 30.9C63.3639 31.23 64.0389 31.5 64.5339 31.5C65.4734 31.5 65.7339 32.4585 65.0164 33.275C64.7869 33.5365 64.1944 34.875 63.6999 36.25C63.2049 37.625 62.4084 39.2 61.9294 39.75C60.1344 41.8115 59.2139 45.4305 60.1139 46.8865C60.3254 47.229 60.3514 47.9725 60.1714 48.5395C59.8799 49.458 60.0259 49.5525 61.5139 49.41C62.9329 49.274 63.2084 49.0355 63.3474 47.822C63.4529 46.8975 63.3209 46.511 62.9724 46.7265C62.0939 47.269 62.3579 46.2315 63.4519 44.841C64.0114 44.129 64.7134 42.805 65.0109 41.8985C65.3084 40.992 66.0624 39.125 66.6864 37.75C67.3099 36.375 67.9794 34.5055 68.1734 33.595C68.4189 32.4455 68.9324 31.7805 69.8554 31.4175C71.4729 30.7805 81.1134 31.179 84.7204 32.0315C87.2459 32.6285 87.2599 32.643 88.0484 35.4405C91.1914 46.594 92.0584 48.5 93.9864 48.5C95.4604 48.5 95.9079 47.0575 95.0584 45.0435C93.4989 41.346 91.4339 35.3145 91.4339 34.4565C91.4339 33.88 91.8784 33.5105 92.6949 33.408L93.9564 33.25L92.7184 32C92.0379 31.3125 91.1499 30.476 90.7454 30.1405C90.3409 29.8055 89.8549 28.2305 89.6654 26.6405C89.0349 21.353 86.9114 11.9155 85.9094 9.952C84.6974 7.5765 83.3644 6.677 80.4224 6.249C78.5844 5.982 78.0129 6.092 77.3719 6.835ZM321.601 7.4875C318.542 7.716 316.57 8.1235 315.672 8.7115C314.328 9.592 314.327 9.602 314.509 14.939L314.692 20.2845L317.019 23.5455C318.299 25.339 321.335 28.9035 323.765 31.467C328.893 36.8755 331.074 40.188 330.661 41.9435C330.265 43.6295 328.199 46.195 326.567 47.0285C324.233 48.2215 322.459 49.637 322.737 50.086C322.882 50.321 321.434 50.3675 319.519 50.1895C317.603 50.0115 315.477 50.006 314.795 50.1775C313.224 50.5715 312.684 52.396 313.78 53.6065C314.656 54.574 315.934 54.8075 315.934 54C315.934 53.725 317.037 53.5 318.386 53.5C321.241 53.5 327.233 51.5965 329.868 49.853C332.11 48.369 334.434 44.0265 334.434 41.3205C334.434 38.943 331.054 33.6795 327.255 30.1415C323.172 26.3395 319.128 21.401 318.539 19.5C318.241 18.5375 317.927 16.4 317.841 14.75L317.684 11.75L320.434 11.4245C321.946 11.2455 324.802 11.0765 326.779 11.0495C328.757 11.0225 330.514 10.775 330.684 10.5C330.854 10.225 331.516 10 332.156 10C332.796 10 333.93 9.6835 334.675 9.2965L336.031 8.593L334.357 7.871C332.521 7.079 328.634 6.962 321.601 7.4875ZM82.5249 11.286C84.0874 13.9615 87.0769 28.0235 86.2574 28.843C86.0934 29.007 84.4139 28.766 82.5254 28.307C78.7889 27.3985 74.3389 27.1295 72.5589 27.704C71.6529 27.9965 71.4339 27.8775 71.4339 27.094C71.4339 26.112 72.9579 22.3515 75.2204 17.75C75.8964 16.375 76.4459 14.969 76.4419 14.625C76.4374 14.2815 76.6589 14 76.9339 14C77.2089 14 77.4339 13.6185 77.4339 13.1525C77.4339 12.0195 79.9599 9.4315 80.8904 9.611C81.2969 9.689 82.0324 10.443 82.5249 11.286Z" fill="#3D3A95"/>
</svg>
